<svg width="1616" height="1159" viewBox="0 0 1616 1159" fill="none" xmlns="http://www.w3.org/2000/svg">
<mask id="mask0_5202_3401" style="mask-type:alpha" maskUnits="userSpaceOnUse" x="-357" y="9" width="2330" height="1144">
<rect x="-356.009" y="9.03687" width="2328.93" height="1143.44" fill="#D9D9D9"/>
</mask>
<g mask="url(#mask0_5202_3401)">
<path d="M2369.56 1599.36C2369.23 1599.36 2368.89 1599.19 2368.64 1598.94L2259.04 1486.7L1944.84 1486.8C1944.42 1486.8 1944.09 1486.64 1943.83 1486.31L1049.71 322.894L536.413 321.187L-275.44 1487.05C-275.689 1487.39 -276.022 1487.56 -276.438 1487.56L-791.898 1487.77C-792.564 1487.78 -793.149 1487.2 -793.151 1486.53C-793.154 1485.86 -792.573 1485.28 -791.906 1485.28L-277.113 1485.06L534.74 319.193C534.989 318.859 535.321 318.692 535.738 318.69L1050.29 320.393C1050.7 320.391 1051.04 320.557 1051.29 320.889L1945.41 1484.3L2259.53 1484.2C2259.87 1484.2 2260.2 1484.37 2260.45 1484.62L2370.47 1597.27C2370.97 1597.77 2370.97 1598.52 2370.47 1599.02C2370.22 1599.19 2369.89 1599.36 2369.56 1599.36Z" fill="#EBEFF6"/>
<path d="M2405.53 1213.39L-790.695 1211.8C-791.362 1211.8 -791.947 1211.22 -791.949 1210.55C-791.951 1209.89 -791.287 1209.22 -790.704 1209.3L2405.52 1210.89C2406.19 1210.88 2406.77 1211.47 2406.77 1212.13C2406.78 1212.8 2406.28 1213.38 2405.53 1213.39Z" fill="#EBEFF6"/>
<path d="M2406.45 1023.96L-789.781 1020.37C-790.447 1020.37 -791.032 1019.79 -791.035 1019.13C-791.037 1018.46 -790.456 1017.87 -789.789 1017.87L2406.44 1021.46C2407.11 1021.46 2407.69 1022.04 2407.7 1022.7C2407.7 1023.37 2407.12 1023.96 2406.45 1023.96Z" fill="#EBEFF6"/>
<path d="M2407.05 884.845L-789.188 879.842C-789.855 879.844 -790.44 879.263 -790.442 878.597C-790.445 877.931 -789.864 877.345 -789.197 877.343L2407.04 882.346C2407.71 882.344 2408.29 882.925 2408.29 883.591C2408.3 884.341 2407.71 884.843 2407.05 884.845Z" fill="#EBEFF6"/>
<path d="M2407.52 781.052C2407.35 781.052 2407.1 780.97 2406.94 780.887L2401.93 778.406L-788.73 772.383C-789.397 772.386 -789.982 771.805 -789.984 771.138C-789.987 770.472 -789.406 769.887 -788.739 769.884L2402.17 775.989C2402.34 775.988 2402.59 776.071 2402.75 776.154L2408.01 778.801C2408.59 779.132 2408.85 779.881 2408.6 780.465C2408.43 780.799 2407.94 781.05 2407.52 781.052Z" fill="#EBEFF6"/>
<path d="M-685.182 1585.61C-685.515 1585.61 -685.766 1585.53 -686.016 1585.28C-686.518 1584.78 -686.604 1584.03 -686.106 1583.53L-459.734 1334.01C-459.485 1333.76 -459.153 1333.59 -458.82 1333.59L2395.95 1333.87C2396.29 1333.87 2396.54 1333.95 2396.79 1334.2L2405.81 1341.75C2406.31 1342.16 2406.4 1343 2405.98 1343.5C2405.57 1344 2404.74 1344.09 2404.23 1343.67L2395.63 1336.37L-458.145 1336.09L-684.184 1585.19C-684.516 1585.44 -684.849 1585.61 -685.182 1585.61Z" fill="#EBEFF6"/>
<path d="M1690.74 1596.31C1690.32 1596.31 1689.9 1596.06 1689.65 1595.65L975.823 321.985C975.488 321.403 975.735 320.653 976.317 320.318C976.899 319.982 977.649 320.23 977.984 320.812L1691.81 1594.39C1692.15 1594.97 1691.9 1595.72 1691.32 1596.06C1691.15 1596.23 1690.99 1596.31 1690.74 1596.31Z" fill="#EBEFF6"/>
<path d="M2030.19 1597.79C2029.77 1597.79 2029.44 1597.63 2029.19 1597.3L1944.25 1486.8L-275.855 1487.64L-344.815 1586.59C-345.23 1587.17 -345.979 1587.26 -346.563 1586.93C-347.148 1586.52 -347.234 1585.77 -346.903 1585.18L-277.611 1485.65C-277.362 1485.31 -276.947 1485.14 -276.613 1485.14L1944.74 1484.3C1945.16 1484.3 1945.49 1484.47 1945.74 1484.8L2031.1 1595.79C2031.52 1596.37 2031.44 1597.12 2030.85 1597.54C2030.69 1597.71 2030.44 1597.79 2030.19 1597.79Z" fill="#EBEFF6"/>
<path d="M1351.37 1594.75C1350.87 1594.75 1350.37 1594.42 1350.2 1593.92L902.351 321.575C902.099 320.91 902.429 320.242 903.095 319.99C903.76 319.738 904.428 320.069 904.68 320.734L1352.53 1593.08C1352.78 1593.74 1352.45 1594.41 1351.78 1594.66C1351.62 1594.75 1351.45 1594.75 1351.37 1594.75Z" fill="#EBEFF6"/>
<path d="M-6.36017 1588.66C-6.52679 1588.66 -6.69336 1588.66 -6.94379 1588.49C-7.52808 1588.16 -7.86389 1587.41 -7.53271 1586.83L608.212 319.603C608.543 319.019 609.292 318.683 609.876 319.014C610.46 319.346 610.796 320.094 610.465 320.678L-5.19629 1587.99C-5.44476 1588.4 -5.86035 1588.66 -6.36017 1588.66Z" fill="#EBEFF6"/>
<path d="M1011.91 1593.18C1011.33 1593.19 1010.75 1592.77 1010.66 1592.1L828.795 321.082C828.709 320.416 829.207 319.748 829.873 319.663C830.539 319.577 831.207 320.074 831.293 320.74L1013.16 1591.85C1013.24 1592.51 1012.75 1593.18 1012.08 1593.27C1012 1593.18 1012 1593.18 1011.91 1593.18Z" fill="#EBEFF6"/>
<path d="M333.092 1590.14C333.009 1590.14 332.842 1590.14 332.759 1590.06C332.092 1589.89 331.673 1589.14 331.921 1588.56L681.85 320.013C682.015 319.346 682.763 318.927 683.347 319.174C684.014 319.339 684.433 320.087 684.185 320.671L334.256 1589.3C334.091 1589.8 333.592 1590.14 333.092 1590.14Z" fill="#EBEFF6"/>
<path d="M672.462 1591.7L672.378 1591.7C671.712 1591.62 671.127 1591.04 671.208 1590.37L755.24 320.589C755.321 319.923 755.902 319.421 756.568 319.419C757.235 319.5 757.82 320.081 757.739 320.747L673.707 1590.53C673.709 1591.2 673.128 1591.7 672.462 1591.7Z" fill="#EBEFF6"/>
<path d="M-692.376 455.424L-787.255 455.172C-787.922 455.174 -788.507 454.593 -788.509 453.927C-788.512 453.261 -787.931 452.675 -787.264 452.673L-692.635 452.926L-641.88 436.255C-641.713 436.255 -641.63 436.171 -641.464 436.171L-542.002 436.49L-498.074 420.926C-497.908 420.842 -497.825 420.842 -497.658 420.841L-401.612 421.172L-363.678 406.629C-363.512 406.545 -363.345 406.545 -363.262 406.544L-270.382 406.803L-237.775 393.195C-237.609 393.111 -237.526 393.111 -237.276 393.11L-147.394 393.379L-119.533 380.62C-119.367 380.536 -119.201 380.452 -119.034 380.535L-31.9845 380.814L-8.3692 368.82C-8.20288 368.736 -8.03625 368.736 -7.78662 368.651L76.5972 368.94L96.3831 357.625C96.5494 357.542 96.7155 357.374 96.9657 357.457L178.85 357.754L195.224 347.118C195.39 346.951 195.556 346.95 195.889 346.949L275.358 347.171L288.651 337.212C288.901 337.045 289.067 336.961 289.4 336.96L366.62 337.19L387.38 318.625C387.63 318.457 387.879 318.29 388.212 318.289L535.571 318.774C536.238 318.772 536.823 319.353 536.825 320.019C536.828 320.685 536.163 321.188 535.58 321.273L388.721 320.786L367.96 339.351C367.711 339.519 367.462 339.603 367.129 339.687L289.826 339.457L276.532 349.416C276.283 349.584 276.117 349.668 275.783 349.669L196.231 349.447L179.858 360.083C179.692 360.25 179.526 360.251 179.192 360.252L97.3074 359.955L77.5216 371.269C77.3553 371.353 77.189 371.437 76.9391 371.438L-7.36176 371.066L-30.9771 383.06C-31.1434 383.144 -31.3096 383.228 -31.5596 383.229L-118.609 382.949L-146.47 395.708C-146.636 395.792 -146.803 395.793 -146.969 395.793L-236.851 395.524L-269.457 409.132C-269.623 409.216 -269.79 409.217 -269.957 409.217L-362.92 408.959L-400.854 423.502C-401.021 423.586 -401.187 423.587 -401.27 423.587L-497.316 423.256L-541.245 438.82C-541.411 438.903 -541.494 438.904 -541.661 438.904L-641.288 438.669L-692.043 455.34C-692.126 455.423 -692.293 455.424 -692.376 455.424Z" fill="#EBEFF6"/>
<path d="M2408.73 508.074C2408.57 508.074 2408.48 508.074 2408.31 507.992L2389.55 501.81L-787.457 492.908C-788.123 492.91 -788.708 492.329 -788.711 491.663C-788.713 490.996 -788.132 490.411 -787.466 490.409L2389.71 499.31C2389.88 499.31 2389.96 499.309 2390.13 499.392L2409.14 505.656C2409.81 505.904 2410.14 506.569 2409.9 507.236C2409.73 507.737 2409.23 508.072 2408.73 508.074Z" fill="#EBEFF6"/>
<path d="M2408.53 546.725C2408.37 546.726 2408.28 546.726 2408.12 546.644L2404.61 545.406L-787.637 536.891C-788.303 536.893 -788.888 536.312 -788.89 535.646C-788.893 534.979 -788.228 534.394 -787.645 534.392L2404.86 542.907C2405.02 542.906 2405.1 542.906 2405.27 542.988L2409.03 544.308C2409.69 544.556 2410.03 545.221 2409.78 545.888C2409.53 546.389 2409.03 546.724 2408.53 546.725Z" fill="#EBEFF6"/>
<path d="M2407.51 778.469L2402.26 778.488C2402.1 778.488 2401.85 778.406 2401.68 778.323L1618.38 388.381L-31.2263 383.227L-788.08 767.883C-788.662 768.218 -789.412 767.971 -789.748 767.306C-790.083 766.724 -789.836 765.973 -789.171 765.638L-32.0677 380.815C-31.9014 380.731 -31.6519 380.647 -31.4852 380.646L1618.71 385.881C1618.87 385.881 1619.12 385.963 1619.29 386.046L2402.59 775.904L2407.58 775.887C2408.25 775.885 2408.84 776.466 2408.84 777.132C2408.76 777.882 2408.18 778.467 2407.51 778.469Z" fill="#EBEFF6"/>
<path d="M2408.29 596.873L-787.872 588.871C-788.538 588.873 -789.123 588.292 -789.126 587.626C-789.128 586.959 -788.547 586.374 -787.88 586.372L2408.28 594.374C2408.95 594.372 2409.53 594.953 2409.54 595.619C2409.54 596.369 2409.04 596.87 2408.29 596.873Z" fill="#EBEFF6"/>
<path d="M2407.09 873.266C2406.92 873.267 2406.67 873.184 2406.51 873.102L2325.47 828.153L-714.917 822.855L-788.491 864.762C-789.073 865.098 -789.824 864.934 -790.159 864.268C-790.494 863.686 -790.33 862.936 -789.665 862.601L-715.842 820.526C-715.675 820.442 -715.592 820.359 -715.259 820.358L2325.79 825.653C2326.04 825.652 2326.21 825.734 2326.37 825.817L2407.67 870.932C2408.25 871.263 2408.5 872.012 2408.17 872.596C2407.92 873.013 2407.51 873.265 2407.09 873.266Z" fill="#EBEFF6"/>
<path d="M2408.09 658.682L-788.153 651.347C-788.82 651.349 -789.405 650.768 -789.407 650.102C-789.41 649.435 -788.912 648.767 -788.162 648.848L2408 656.184C2408.67 656.181 2409.25 656.762 2409.25 657.429C2409.34 658.095 2408.76 658.68 2408.09 658.682Z" fill="#EBEFF6"/>
<path d="M2406.58 989.472C2406.33 989.472 2406.08 989.39 2405.91 989.307L2342.13 949.379L-722.487 945.25L-788.976 988.381C-789.558 988.716 -790.308 988.552 -790.727 988.054C-791.062 987.472 -790.898 986.722 -790.399 986.304L-723.577 943.004C-723.411 942.837 -723.162 942.836 -722.912 942.835L2342.46 946.962C2342.71 946.962 2342.96 947.044 2343.12 947.127L2407.16 987.22C2407.74 987.552 2407.91 988.384 2407.58 988.968C2407.41 989.219 2407 989.47 2406.58 989.472Z" fill="#EBEFF6"/>
<path d="M2407.69 734.07L-788.554 727.484C-789.22 727.486 -789.806 726.905 -789.808 726.239C-789.81 725.573 -789.229 724.987 -788.563 724.985L2407.68 731.571C2408.35 731.569 2408.93 732.15 2408.93 732.816C2408.94 733.483 2408.44 734.067 2407.69 734.07Z" fill="#EBEFF6"/>
<path d="M2407.27 828.367L2325.72 828.235C2325.47 828.236 2325.3 828.153 2325.13 828.071L1509.88 375.932L77.3553 371.353L-714.668 822.688C-714.834 822.772 -715.084 822.856 -715.25 822.857L-788.888 822.697C-789.554 822.699 -790.14 822.118 -790.142 821.452C-790.144 820.786 -789.563 820.201 -788.897 820.198L-715.592 820.359L76.4306 368.941C76.5969 368.857 76.7632 368.773 77.0131 368.772L1510.12 373.349C1510.37 373.348 1510.54 373.431 1510.71 373.513L2325.96 825.652L2407.18 825.785C2407.84 825.783 2408.43 826.364 2408.43 827.03C2408.52 827.78 2408.02 828.364 2407.27 828.367Z" fill="#EBEFF6"/>
<path d="M2408.86 474.337C2408.78 474.337 2408.61 474.338 2408.53 474.255L2376.68 464.37L2275.55 464.056C2275.38 464.057 2275.3 464.057 2275.13 463.974L2224.01 447.16L2126.3 446.834C2126.13 446.835 2126.05 446.835 2125.88 446.753L2081.43 431.081L1986.88 430.828C1986.71 430.828 1986.55 430.829 1986.46 430.746L1947.93 416.053L1856.38 415.789C1856.21 415.79 1856.05 415.791 1855.88 415.708L1822.6 401.996L1733.8 401.723C1733.63 401.724 1733.46 401.724 1733.3 401.642L1704.76 388.746L1618.63 388.464C1618.46 388.465 1618.21 388.382 1618.05 388.299L1593.76 376.222L1510.13 375.931C1509.88 375.932 1509.71 375.849 1509.55 375.767L1489.02 364.426L1407.8 364.127C1407.55 364.127 1407.3 364.045 1407.13 363.962L1390.02 353.276L1311.05 353.052C1310.8 353.053 1310.55 352.971 1310.3 352.805L1296.27 342.775L1219.46 342.543C1219.13 342.544 1218.88 342.462 1218.63 342.213L1207.43 332.755L1132.63 332.517C1132.3 332.518 1131.96 332.353 1131.71 332.104L1123.02 323.221L1050.21 322.975C1049.55 322.977 1048.96 322.396 1048.96 321.73C1048.96 321.064 1049.54 320.478 1050.2 320.476L1123.59 320.72C1123.93 320.719 1124.26 320.884 1124.51 321.133L1133.2 330.016L1207.93 330.255C1208.26 330.254 1208.51 330.336 1208.76 330.585L1219.95 340.042L1296.76 340.274C1297.01 340.273 1297.26 340.355 1297.51 340.521L1311.54 350.552L1390.51 350.776C1390.76 350.775 1391.01 350.857 1391.17 350.94L1408.29 361.626L1489.51 361.925C1489.76 361.925 1489.92 362.007 1490.09 362.09L1510.62 373.43L1594.17 373.722C1594.34 373.721 1594.59 373.804 1594.76 373.886L1619.04 385.964L1705.09 386.246C1705.25 386.246 1705.42 386.245 1705.59 386.328L1734.12 399.223L1822.84 399.496C1823 399.496 1823.17 399.495 1823.34 399.578L1856.62 413.29L1948.17 413.553C1948.34 413.553 1948.5 413.552 1948.59 413.635L1987.12 428.328L2081.67 428.581C2081.84 428.58 2081.92 428.58 2082.09 428.663L2126.54 444.335L2224.25 444.66C2224.42 444.659 2224.5 444.659 2224.67 444.742L2275.79 461.556L2376.92 461.87C2377 461.87 2377.17 461.869 2377.25 461.952L2409.35 471.836C2410.02 472 2410.36 472.749 2410.19 473.416C2409.95 474 2409.45 474.335 2408.86 474.337Z" fill="#EBEFF6"/>
<path d="M2408.91 464.507L2376.76 464.453C2376.68 464.453 2376.51 464.454 2376.43 464.371L2321.89 447.484L2224.18 447.159C2224.01 447.16 2223.93 447.16 2223.76 447.077L2176.06 431.334L2081.51 431.08C2081.34 431.081 2081.26 431.081 2081.09 430.999L2039.56 416.316L1948.01 416.053C1947.84 416.053 1947.68 416.054 1947.59 415.971L1911.48 402.186L1822.76 401.912C1822.6 401.913 1822.43 401.914 1822.26 401.831L1790.98 388.945L1704.93 388.662C1704.76 388.663 1704.6 388.664 1704.43 388.581L1677.56 376.43L1594.01 376.138C1593.85 376.139 1593.6 376.056 1593.43 375.974L1570.48 364.558L1489.26 364.259C1489.01 364.26 1488.85 364.177 1488.68 364.094L1469.32 353.333L1390.35 353.109C1390.1 353.109 1389.85 353.027 1389.68 352.944L1373.49 342.838L1296.6 342.607C1296.35 342.608 1296.1 342.525 1295.85 342.36L1282.57 332.826L1207.77 332.588C1207.43 332.589 1207.18 332.506 1206.93 332.257L1196.32 323.298L1123.43 323.053C1122.77 323.055 1122.18 322.474 1122.18 321.808C1122.18 321.141 1122.76 320.556 1123.43 320.554L1196.73 320.798C1197.06 320.797 1197.31 320.879 1197.56 321.128L1208.17 330.087L1282.98 330.326C1283.23 330.325 1283.48 330.408 1283.73 330.573L1297.01 340.106L1373.81 340.338C1374.06 340.337 1374.31 340.42 1374.48 340.502L1390.67 350.608L1469.64 350.833C1469.89 350.832 1470.06 350.914 1470.23 350.997L1489.59 361.759L1570.81 362.058C1570.97 362.058 1571.22 362.14 1571.39 362.223L1594.34 373.638L1677.89 373.929C1678.06 373.929 1678.22 373.928 1678.39 374.011L1705.25 386.162L1791.3 386.445C1791.47 386.444 1791.64 386.444 1791.8 386.527L1823.09 399.412L1911.8 399.686C1911.97 399.685 1912.14 399.684 1912.22 399.768L1948.34 413.553L2039.88 413.816C2040.05 413.815 2040.13 413.815 2040.3 413.898L2081.83 428.58L2176.3 428.834C2176.46 428.833 2176.55 428.833 2176.71 428.915L2224.42 444.659L2322.13 444.985C2322.21 444.984 2322.38 444.984 2322.46 445.067L2377 461.953L2408.9 462.008C2409.57 462.006 2410.16 462.587 2410.16 463.253C2410.16 463.92 2409.58 464.505 2408.91 464.507Z" fill="#EBEFF6"/>
<path d="M2409.02 447.763L2322.14 447.484C2322.05 447.484 2321.89 447.484 2321.8 447.401L2270.94 431.669L2176.47 431.415C2176.31 431.416 2176.22 431.416 2176.06 431.334L2131.44 416.662L2039.98 416.398C2039.81 416.399 2039.73 416.399 2039.56 416.316L2000.61 402.541L1911.89 402.268C1911.73 402.268 1911.56 402.269 1911.48 402.186L1877.53 389.226L1791.48 388.943C1791.31 388.944 1791.15 388.945 1790.98 388.862L1761.62 376.719L1678.07 376.428C1677.9 376.428 1677.73 376.429 1677.56 376.346L1652.29 364.939L1571.07 364.64C1570.9 364.64 1570.65 364.558 1570.48 364.475L1548.87 353.721L1469.9 353.497C1469.65 353.498 1469.48 353.415 1469.32 353.333L1451.04 343.151L1374.15 342.919C1373.9 342.92 1373.65 342.838 1373.49 342.755L1358.21 333.146L1283.4 332.907C1283.15 332.908 1282.9 332.825 1282.65 332.66L1270.13 323.624L1197.24 323.378C1196.57 323.381 1195.99 322.799 1195.99 322.133C1195.98 321.467 1196.56 320.882 1197.23 320.879L1270.54 321.123C1270.79 321.122 1271.04 321.205 1271.29 321.37L1283.81 330.406L1358.62 330.645C1358.87 330.644 1359.12 330.727 1359.28 330.809L1374.56 340.419L1451.36 340.65C1451.61 340.65 1451.78 340.732 1451.95 340.815L1470.23 350.997L1549.2 351.221C1549.36 351.221 1549.61 351.303 1549.78 351.386L1571.39 362.139L1652.61 362.439C1652.78 362.438 1652.94 362.438 1653.11 362.521L1678.39 373.928L1761.94 374.219C1762.11 374.219 1762.27 374.218 1762.44 374.301L1791.8 386.443L1877.85 386.726C1878.02 386.725 1878.19 386.725 1878.27 386.808L1911.97 399.768L2000.68 400.042C2000.85 400.041 2000.93 400.041 2001.1 400.124L2040.05 413.899L2131.52 414.163C2131.68 414.162 2131.76 414.162 2131.93 414.244L2176.55 428.916L2271.01 429.169C2271.09 429.169 2271.26 429.169 2271.34 429.252L2322.21 444.984L2408.93 445.265C2409.6 445.262 2410.18 445.843 2410.18 446.51C2410.27 447.176 2409.69 447.761 2409.02 447.763Z" fill="#EBEFF6"/>
<path d="M2409.01 444.598C2408.93 444.598 2408.76 444.599 2408.68 444.516L2365.4 431.922L2271.02 431.668C2270.94 431.669 2270.77 431.669 2270.69 431.586L2222.99 416.842L2131.52 416.578C2131.36 416.579 2131.27 416.579 2131.11 416.496L2089.24 402.731L2000.61 402.458C2000.44 402.458 2000.36 402.459 2000.19 402.376L1963.58 389.426L1877.61 389.143C1877.45 389.143 1877.28 389.144 1877.2 389.061L1845.25 376.927L1761.7 376.636C1761.53 376.636 1761.37 376.637 1761.2 376.554L1733.5 365.072L1652.28 364.773C1652.12 364.773 1651.95 364.774 1651.78 364.691L1627.84 353.862L1548.87 353.638C1548.7 353.639 1548.45 353.556 1548.29 353.474L1527.84 343.299L1451.04 343.067C1450.79 343.068 1450.62 342.985 1450.46 342.903L1433.1 333.301L1358.29 333.062C1358.04 333.063 1357.79 332.98 1357.62 332.898L1343.1 323.785L1270.21 323.54C1269.54 323.542 1268.96 322.961 1268.96 322.295C1268.95 321.628 1269.54 321.043 1270.2 321.041L1343.51 321.285C1343.76 321.284 1344.01 321.366 1344.17 321.449L1358.7 330.561L1433.5 330.8C1433.75 330.799 1433.92 330.882 1434.09 330.965L1451.45 340.567L1528.25 340.799C1528.42 340.798 1528.67 340.88 1528.83 340.963L1549.28 351.138L1628.25 351.362C1628.41 351.361 1628.58 351.361 1628.75 351.443L1652.69 362.272L1733.83 362.572C1733.99 362.571 1734.16 362.571 1734.33 362.654L1762.02 374.136L1845.49 374.427C1845.66 374.427 1845.82 374.426 1845.91 374.509L1877.85 386.643L1963.82 386.926C1963.99 386.925 1964.07 386.925 1964.24 387.008L2000.85 399.958L2089.48 400.232C2089.65 400.231 2089.73 400.231 2089.9 400.313L2131.76 414.078L2223.15 414.343C2223.23 414.342 2223.4 414.342 2223.48 414.425L2271.18 429.169L2365.56 429.423C2365.64 429.422 2365.81 429.422 2365.89 429.505L2409.33 442.098C2410 442.262 2410.34 443.011 2410.17 443.678C2410.09 444.261 2409.59 444.596 2409.01 444.598Z" fill="#EBEFF6"/>
<path d="M2409.05 432.103L2365.57 432.005C2365.48 432.005 2365.32 432.006 2365.23 431.923L2314.54 417.189L2223.15 416.925C2223.07 416.925 2222.9 416.926 2222.82 416.843L2178.12 403.004L2089.49 402.731C2089.33 402.731 2089.24 402.731 2089.08 402.649L2049.8 389.708L1963.83 389.425C1963.66 389.425 1963.58 389.426 1963.41 389.343L1928.97 377.135L1845.5 376.843C1845.33 376.844 1845.17 376.844 1845.08 376.761L1814.97 365.288L1733.84 364.988C1733.67 364.988 1733.5 364.989 1733.34 364.906L1707.14 354.085L1628.17 353.861C1628.01 353.862 1627.84 353.862 1627.67 353.78L1605.06 343.613L1528.26 343.381C1528.09 343.381 1527.84 343.299 1527.68 343.216L1508.32 333.538L1433.51 333.299C1433.26 333.3 1433.1 333.217 1432.93 333.135L1416.49 324.029L1343.6 323.784C1342.93 323.786 1342.35 323.205 1342.34 322.539C1342.34 321.872 1343.01 321.287 1343.59 321.285L1416.81 321.529C1417.06 321.528 1417.23 321.611 1417.39 321.693L1433.84 330.799L1508.64 331.038C1508.81 331.037 1509.06 331.12 1509.22 331.202L1528.58 340.881L1605.39 341.112C1605.55 341.112 1605.72 341.111 1605.89 341.194L1628.5 351.361L1707.38 351.585C1707.55 351.585 1707.72 351.584 1707.88 351.667L1734.08 362.488L1815.21 362.788C1815.38 362.787 1815.55 362.787 1815.63 362.87L1845.74 374.343L1929.21 374.635C1929.37 374.634 1929.46 374.634 1929.62 374.717L1964.07 386.925L2050.04 387.208C2050.2 387.207 2050.29 387.207 2050.45 387.29L2089.73 400.231L2178.28 400.505C2178.37 400.504 2178.53 400.504 2178.62 400.587L2223.31 414.425L2314.69 414.689C2314.78 414.689 2314.94 414.689 2315.03 414.772L2365.72 429.505L2409.04 429.604C2409.71 429.602 2410.29 430.183 2410.29 430.849C2410.3 431.599 2409.8 432.1 2409.05 432.103Z" fill="#EBEFF6"/>
<path d="M2409.17 418.275C2409.08 418.275 2408.92 418.276 2408.83 418.193L2406.08 417.452L2314.7 417.188C2314.62 417.189 2314.45 417.189 2314.37 417.106L2266.84 403.278L2178.29 403.004C2178.21 403.004 2178.04 403.005 2177.96 402.922L2136.01 389.99L2050.05 389.707C2049.88 389.707 2049.8 389.708 2049.63 389.625L2012.6 377.426L1929.13 377.134C1928.97 377.135 1928.88 377.135 1928.72 377.052L1896.27 365.587L1815.14 365.287C1814.97 365.288 1814.8 365.288 1814.72 365.205L1786.28 354.392L1707.39 354.168C1707.23 354.168 1707.06 354.169 1706.89 354.086L1682.12 343.843L1605.31 343.612C1605.15 343.612 1604.98 343.613 1604.81 343.53L1583.37 333.859L1508.57 333.62C1508.4 333.621 1508.15 333.538 1507.98 333.456L1489.62 324.273L1416.74 324.028C1416.07 324.03 1415.48 323.449 1415.48 322.783C1415.48 322.117 1416.06 321.531 1416.73 321.529L1489.95 321.773C1490.12 321.773 1490.37 321.855 1490.53 321.938L1508.89 331.12L1583.7 331.359C1583.86 331.358 1584.03 331.358 1584.2 331.44L1605.64 341.112L1682.44 341.343C1682.61 341.343 1682.77 341.342 1682.94 341.425L1707.72 351.668L1786.6 351.892C1786.77 351.891 1786.94 351.891 1787.02 351.974L1815.46 362.787L1896.6 363.087C1896.76 363.086 1896.85 363.086 1897.01 363.169L1929.46 374.634L2012.93 374.926C2013.09 374.925 2013.18 374.925 2013.34 375.008L2050.37 387.207L2136.34 387.49C2136.42 387.489 2136.59 387.489 2136.67 387.572L2178.62 400.504L2267.16 400.778C2267.25 400.777 2267.41 400.777 2267.5 400.86L2315.03 414.688L2406.32 414.953C2406.41 414.952 2406.57 414.952 2406.66 415.035L2409.49 415.858C2410.16 416.022 2410.58 416.687 2410.33 417.354C2410.17 417.938 2409.67 418.273 2409.17 418.275Z" fill="#EBEFF6"/>
<path d="M2409.17 417.525L2406.25 417.535C2406.17 417.536 2406 417.536 2405.92 417.453L2355.55 403.634L2267.01 403.36C2266.92 403.361 2266.76 403.361 2266.67 403.278L2221.98 390.273L2136.1 389.99C2136.01 389.99 2135.85 389.99 2135.76 389.907L2096.23 377.717L2012.77 377.425C2012.6 377.426 2012.52 377.426 2012.35 377.343L1977.49 365.886L1896.44 365.586C1896.27 365.587 1896.19 365.587 1896.02 365.504L1865.33 354.616L1786.44 354.392C1786.28 354.392 1786.11 354.393 1786.03 354.31L1759.17 344.074L1682.37 343.843C1682.2 343.843 1682.03 343.844 1681.87 343.761L1658.42 334.097L1583.62 333.858C1583.45 333.859 1583.29 333.859 1583.12 333.777L1562.85 324.601L1489.96 324.356C1489.29 324.358 1488.71 323.777 1488.7 323.111C1488.7 322.444 1489.2 321.943 1489.95 321.857L1563.09 322.101C1563.25 322.101 1563.42 322.1 1563.59 322.183L1583.86 331.358L1658.67 331.597C1658.83 331.596 1659 331.596 1659.17 331.678L1682.69 341.426L1759.41 341.658C1759.58 341.657 1759.74 341.657 1759.83 341.74L1786.69 351.975L1865.57 352.199C1865.74 352.199 1865.82 352.199 1865.99 352.281L1896.68 363.17L1977.73 363.47C1977.9 363.469 1977.98 363.469 1978.15 363.552L2013.01 375.009L2096.48 375.301C2096.56 375.3 2096.73 375.3 2096.81 375.383L2136.34 387.573L2222.22 387.856C2222.3 387.856 2222.47 387.856 2222.55 387.939L2267.25 400.944L2355.8 401.218C2355.88 401.218 2356.05 401.217 2356.13 401.3L2406.49 415.119L2409.24 415.109C2409.91 415.107 2410.49 415.688 2410.49 416.354C2410.41 416.938 2409.83 417.523 2409.17 417.525Z" fill="#EBEFF6"/>
<path d="M2409.2 403.78L2355.8 403.634C2355.72 403.634 2355.55 403.634 2355.47 403.551L2308.19 390.555L2222.31 390.272C2222.23 390.272 2222.06 390.273 2221.98 390.19L2179.95 378.008L2096.57 377.716C2096.48 377.716 2096.32 377.717 2096.23 377.634L2058.96 366.102L1977.91 365.802C1977.74 365.802 1977.66 365.803 1977.49 365.72L1944.55 354.839L1865.75 354.615C1865.58 354.615 1865.5 354.615 1865.33 354.533L1836.31 344.305L1759.5 344.073C1759.34 344.074 1759.17 344.074 1759.09 343.991L1733.65 334.251L1658.84 334.012C1658.67 334.013 1658.51 334.013 1658.34 333.93L1636.15 324.762L1563.26 324.516C1562.6 324.519 1562.01 323.938 1562.01 323.271C1562.01 322.605 1562.59 321.936 1563.25 322.017L1636.39 322.262C1636.56 322.261 1636.73 322.261 1636.89 322.343L1659.08 331.512L1733.8 331.751C1733.97 331.751 1734.14 331.75 1734.22 331.833L1759.66 341.574L1836.46 341.805C1836.63 341.805 1836.71 341.804 1836.88 341.887L1865.9 352.115L1944.71 352.34C1944.87 352.339 1944.96 352.339 1945.12 352.422L1978.07 363.302L2059.12 363.602C2059.2 363.602 2059.37 363.601 2059.45 363.684L2096.73 375.216L2180.11 375.508C2180.19 375.508 2180.36 375.508 2180.44 375.591L2222.47 387.772L2308.35 388.056C2308.44 388.055 2308.6 388.055 2308.69 388.138L2355.96 401.134L2409.19 401.281C2409.86 401.279 2410.44 401.86 2410.45 402.527C2410.45 403.193 2409.87 403.778 2409.2 403.78Z" fill="#EBEFF6"/>
<path d="M2409.25 394.701C2409.17 394.701 2409 394.701 2408.92 394.702L2394.16 390.838L2308.36 390.554C2308.28 390.555 2308.11 390.555 2308.03 390.472L2263.5 378.216L2180.12 377.924C2180.04 377.924 2179.87 377.925 2179.79 377.842L2140.18 366.318L2059.13 366.018C2059.04 366.018 2058.88 366.019 2058.79 365.936L2023.6 355.063L1944.8 354.838C1944.63 354.839 1944.55 354.839 1944.38 354.757L1913.28 344.453L1836.56 344.221C1836.39 344.221 1836.31 344.222 1836.14 344.139L1808.62 334.405L1733.89 334.167C1733.73 334.167 1733.56 334.168 1733.48 334.085L1709.37 324.922L1636.48 324.677C1635.82 324.679 1635.23 324.098 1635.23 323.432C1635.23 322.766 1635.81 322.181 1636.48 322.178L1709.53 322.423C1709.7 322.422 1709.86 322.422 1709.95 322.505L1734.05 331.667L1808.77 331.906C1808.94 331.905 1809.02 331.905 1809.19 331.988L1836.71 341.721L1913.43 341.953C1913.6 341.952 1913.68 341.952 1913.85 342.035L1944.96 352.339L2023.76 352.564C2023.84 352.563 2024.01 352.563 2024.09 352.646L2059.28 363.518L2140.34 363.819C2140.42 363.818 2140.59 363.818 2140.67 363.901L2180.28 375.425L2263.66 375.717C2263.74 375.716 2263.91 375.716 2263.99 375.799L2308.52 388.055L2394.32 388.339C2394.4 388.338 2394.57 388.338 2394.65 388.337L2409.58 392.2C2410.24 392.365 2410.66 393.03 2410.5 393.697C2410.33 394.364 2409.75 394.699 2409.25 394.701Z" fill="#EBEFF6"/>
<path d="M2409.24 390.869L2394.24 390.838C2394.16 390.838 2393.99 390.839 2393.91 390.839L2346.89 378.591L2263.59 378.299C2263.5 378.299 2263.34 378.3 2263.25 378.217L2221.23 366.702L2140.26 366.401C2140.18 366.402 2140.01 366.402 2139.93 366.319L2102.49 355.454L2023.69 355.229C2023.6 355.23 2023.44 355.23 2023.35 355.147L1990.08 344.851L1913.36 344.619C1913.19 344.62 1913.11 344.62 1912.94 344.537L1883.42 334.811L1808.7 334.572C1808.53 334.572 1808.45 334.573 1808.28 334.49L1782.18 325.251L1709.37 325.006C1708.71 325.008 1708.12 324.427 1708.12 323.761C1708.12 323.094 1708.78 322.426 1709.36 322.507L1782.42 322.752C1782.59 322.751 1782.67 322.751 1782.84 322.833L1808.94 332.072L1883.66 332.311C1883.83 332.31 1883.91 332.31 1884.08 332.393L1913.6 342.119L1990.32 342.351C1990.4 342.351 1990.57 342.35 1990.65 342.433L2023.93 352.73L2102.73 352.954C2102.81 352.954 2102.98 352.953 2103.06 353.036L2140.5 363.901L2221.47 364.202C2221.55 364.202 2221.72 364.201 2221.8 364.284L2263.83 375.799L2347.13 376.092C2347.21 376.091 2347.38 376.091 2347.46 376.09L2394.49 388.338L2409.31 388.37C2409.98 388.367 2410.57 388.948 2410.57 389.615C2410.49 390.365 2409.91 390.866 2409.24 390.869Z" fill="#EBEFF6"/>
<path d="M2409.28 378.79L2347.05 378.591C2346.97 378.591 2346.8 378.592 2346.72 378.592L2302.37 367.085L2221.4 366.784C2221.31 366.785 2221.15 366.785 2221.06 366.702L2181.37 355.845L2102.66 355.62C2102.57 355.62 2102.41 355.621 2102.32 355.538L2066.97 345.249L1990.25 345.017C1990.16 345.017 1990 345.018 1989.91 344.935L1958.39 335.215L1883.67 334.976C1883.5 334.977 1883.42 334.977 1883.25 334.895L1855.23 325.663L1782.43 325.417C1781.76 325.42 1781.18 324.838 1781.17 324.172C1781.17 323.506 1781.75 322.921 1782.42 322.918L1855.47 323.163C1855.64 323.162 1855.72 323.162 1855.89 323.245L1883.91 332.477L1958.63 332.716C1958.72 332.715 1958.88 332.715 1958.97 332.798L1990.49 342.517L2067.21 342.749C2067.29 342.749 2067.46 342.748 2067.54 342.831L2102.9 353.12L2181.62 353.345C2181.7 353.345 2181.87 353.344 2181.95 353.427L2221.64 364.285L2302.61 364.585C2302.69 364.585 2302.86 364.584 2302.94 364.584L2347.3 376.091L2409.35 376.291C2410.02 376.289 2410.61 376.87 2410.61 377.536C2410.53 378.203 2410.03 378.788 2409.28 378.79Z" fill="#EBEFF6"/>
<path d="M2409.34 373.625C2409.26 373.626 2409.18 373.626 2409.01 373.626L2383.5 367.301L2302.53 367.001C2302.45 367.001 2302.28 367.002 2302.2 367.002L2260.34 356.069L2181.62 355.844C2181.54 355.845 2181.37 355.845 2181.29 355.762L2143.77 345.481L2067.13 345.248C2067.05 345.249 2066.88 345.249 2066.8 345.166L2033.28 335.454L1958.64 335.215C1958.56 335.215 1958.39 335.215 1958.31 335.132L1928.37 325.907L1855.57 325.662C1854.9 325.664 1854.31 325.083 1854.31 324.417C1854.31 323.75 1854.72 323.166 1855.56 323.163L1928.53 323.408C1928.61 323.408 1928.78 323.407 1928.86 323.49L1958.8 332.715L2033.44 332.954C2033.52 332.954 2033.69 332.953 2033.77 333.036L2067.29 342.749L2143.93 342.981C2144.01 342.981 2144.18 342.98 2144.26 343.063L2181.78 353.345L2260.5 353.57C2260.58 353.569 2260.75 353.569 2260.83 353.569L2302.69 364.501L2383.66 364.802C2383.74 364.802 2383.82 364.801 2383.99 364.801L2409.67 371.125C2410.34 371.289 2410.76 371.954 2410.59 372.621C2410.43 373.205 2409.93 373.623 2409.34 373.625Z" fill="#EBEFF6"/>
<path d="M2409.32 367.378L2383.67 367.301C2383.58 367.301 2383.5 367.301 2383.33 367.302L2339.23 356.377L2260.51 356.152C2260.43 356.152 2260.26 356.153 2260.18 356.153L2220.57 345.879L2143.94 345.647C2143.85 345.647 2143.69 345.648 2143.6 345.565L2108.08 335.776L2033.45 335.537C2033.36 335.537 2033.2 335.537 2033.11 335.454L2001.26 326.236L1928.46 325.99C1927.79 325.993 1927.2 325.412 1927.2 324.745C1927.2 324.079 1927.78 323.494 1928.45 323.491L2001.42 323.736C2001.5 323.736 2001.67 323.736 2001.75 323.819L2033.6 333.037L2108.24 333.276C2108.32 333.276 2108.49 333.275 2108.58 333.358L2144.09 343.147L2220.73 343.379C2220.82 343.379 2220.98 343.379 2221.07 343.378L2260.67 353.652L2339.39 353.878C2339.47 353.877 2339.55 353.877 2339.72 353.876L2383.82 364.801L2409.4 364.879C2410.06 364.876 2410.65 365.457 2410.65 366.124C2410.57 366.79 2410.07 367.375 2409.32 367.378Z" fill="#EBEFF6"/>
<path d="M2409.45 356.548C2409.37 356.549 2409.37 356.549 2409.45 356.548L2339.4 356.293C2339.31 356.293 2339.23 356.294 2339.06 356.294L2297.29 345.944L2220.74 345.712C2220.66 345.712 2220.49 345.713 2220.41 345.713L2182.8 335.932L2108.17 335.692C2108.08 335.693 2107.92 335.693 2107.83 335.61L2074.06 326.315L2001.34 326.069C2000.68 326.071 2000.09 325.49 2000.09 324.824C2000.09 324.158 2000.67 323.573 2001.33 323.57L2074.22 323.816C2074.31 323.815 2074.47 323.815 2074.56 323.898L2108.32 333.193L2182.96 333.432C2183.05 333.432 2183.21 333.431 2183.3 333.431L2220.9 343.212L2297.45 343.445C2297.53 343.445 2297.62 343.444 2297.78 343.444L2339.55 353.794L2409.44 354.049C2410.11 354.047 2410.69 354.628 2410.7 355.295C2410.62 355.961 2410.12 356.546 2409.45 356.548Z" fill="#EBEFF6"/>
<path d="M2409.44 354.466C2409.36 354.466 2409.28 354.467 2409.11 354.467L2374.01 346.176L2297.46 345.944C2297.38 345.944 2297.29 345.944 2297.13 345.945L2257.53 336.17L2182.97 335.931C2182.89 335.931 2182.72 335.932 2182.64 335.932L2147.04 326.643L2074.31 326.397C2073.65 326.4 2073.06 325.819 2073.06 325.152C2073.06 324.486 2073.64 323.901 2074.31 323.899L2147.19 324.144C2147.28 324.144 2147.44 324.143 2147.53 324.143L2183.13 333.431L2257.68 333.671C2257.77 333.671 2257.85 333.67 2258.02 333.67L2297.62 343.444L2374.17 343.677C2374.25 343.676 2374.34 343.676 2374.42 343.676L2409.69 351.966C2410.35 352.13 2410.77 352.795 2410.61 353.462C2410.53 354.129 2409.94 354.464 2409.44 354.466Z" fill="#EBEFF6"/>
<path d="M2409.42 346.303L2374.18 346.176C2374.1 346.176 2374.01 346.176 2373.93 346.177L2332.41 336.409L2257.86 336.169C2257.78 336.17 2257.69 336.17 2257.53 336.17L2220.01 326.889L2147.29 326.643C2146.62 326.645 2146.03 326.064 2146.03 325.397C2146.03 324.731 2146.53 324.146 2147.28 324.144L2220.08 324.389C2220.17 324.389 2220.25 324.389 2220.42 324.388L2257.93 333.67L2332.49 333.91C2332.57 333.909 2332.65 333.909 2332.74 333.909L2374.25 343.676L2409.41 343.804C2410.07 343.801 2410.66 344.382 2410.66 345.049C2410.66 345.799 2410.17 346.3 2409.42 346.303Z" fill="#EBEFF6"/>
<path d="M2409.47 337.14C2409.38 337.14 2409.3 337.14 2409.22 337.14L2407.05 336.648L2332.5 336.409C2332.41 336.409 2332.33 336.409 2332.25 336.409L2292.81 327.134L2220.17 326.888C2219.51 326.89 2218.92 326.309 2218.92 325.643C2218.92 324.976 2219.5 324.391 2220.17 324.389L2292.97 324.635C2293.05 324.634 2293.14 324.634 2293.22 324.634L2332.65 333.909L2407.21 334.149C2407.29 334.148 2407.37 334.148 2407.46 334.148L2409.79 334.639C2410.46 334.804 2410.88 335.469 2410.71 336.136C2410.55 336.803 2410.05 337.137 2409.47 337.14Z" fill="#EBEFF6"/>
<path d="M2409.47 336.64L2407.13 336.648C2407.05 336.648 2406.97 336.648 2406.88 336.649L2365.53 327.38L2292.9 327.134C2292.23 327.136 2291.64 326.555 2291.64 325.889C2291.64 325.222 2292.22 324.637 2292.89 324.635L2365.69 324.881C2365.78 324.88 2365.86 324.88 2365.94 324.88L2407.29 334.148L2409.46 334.141C2410.12 334.138 2410.71 334.719 2410.71 335.386C2410.71 336.052 2410.22 336.637 2409.47 336.64Z" fill="#EBEFF6"/>
<path d="M2405.86 1140.25C2405.61 1140.25 2405.36 1140.17 2405.11 1140L2364.35 1110.74L-732.58 1108.14L-789.658 1151.07C-790.239 1151.49 -790.989 1151.41 -791.408 1150.82C-791.826 1150.24 -791.746 1149.49 -791.164 1149.07L-733.755 1105.89C-733.505 1105.72 -733.339 1105.72 -733.006 1105.64L2364.85 1108.24C2365.09 1108.24 2365.35 1108.32 2365.6 1108.48L2406.68 1138C2407.27 1138.41 2407.35 1139.16 2406.94 1139.74C2406.69 1140.08 2406.27 1140.25 2405.86 1140.25Z" fill="#EBEFF6"/>
<path d="M2406.77 949.404L2342.55 949.295C2342.3 949.295 2342.05 949.213 2341.88 949.13L1407.46 364.128L179.775 360.167L-722.154 944.998C-722.32 945.166 -722.57 945.166 -722.82 945.167L-789.461 945.067C-790.127 945.069 -790.712 944.488 -790.714 943.822C-790.717 943.155 -790.219 942.487 -789.469 942.568L-723.246 942.67L178.684 357.838C178.85 357.671 179.183 357.67 179.35 357.669L1407.79 361.628C1408.04 361.627 1408.29 361.709 1408.45 361.792L2342.87 946.878L2406.77 946.988C2407.43 946.986 2408.02 947.567 2408.02 948.233C2408.02 948.899 2407.44 949.401 2406.77 949.404Z" fill="#EBEFF6"/>
<path d="M-720.932 316.913L-786.656 316.725C-787.322 316.728 -787.907 316.147 -787.91 315.48C-787.912 314.814 -787.331 314.229 -786.665 314.226L-720.94 314.414C-720.274 314.411 -719.689 314.992 -719.686 315.659C-719.684 316.408 -720.182 316.91 -720.932 316.913Z" fill="#EBEFF6"/>
<path d="M-724.114 335.999L-786.756 335.801C-787.422 335.804 -788.007 335.223 -788.01 334.556C-788.012 333.89 -787.431 333.305 -786.765 333.303L-724.289 333.501L-647.052 314.739C-646.969 314.738 -646.886 314.738 -646.719 314.738L-498.443 315.22C-497.777 315.217 -497.192 315.798 -497.189 316.465C-497.187 317.131 -497.768 317.633 -498.435 317.719L-646.627 317.236L-723.864 335.998C-723.864 335.998 -724.03 335.999 -724.114 335.999Z" fill="#EBEFF6"/>
<path d="M2404.32 1486.61L2259.63 1486.7C2259.29 1486.7 2258.96 1486.54 2258.71 1486.29L1132.21 332.352L454.31 330.053L-457.896 1335.67C-458.145 1335.92 -458.477 1336.17 -458.811 1336.09L-746.695 1336.09L-790.541 1375.31C-791.039 1375.73 -791.872 1375.74 -792.29 1375.24C-792.792 1374.74 -792.712 1373.91 -792.213 1373.49L-747.952 1333.93C-747.703 1333.77 -747.454 1333.6 -747.121 1333.6L-459.319 1333.59L452.887 328.059C453.136 327.808 453.385 327.641 453.802 327.639L1132.79 329.934C1133.12 329.933 1133.45 330.098 1133.71 330.347L2260.2 1484.28L2404.39 1484.2C2405.06 1484.2 2405.64 1484.78 2405.65 1485.44C2405.65 1486.11 2405.07 1486.61 2404.32 1486.61Z" fill="#EBEFF6"/>
<path d="M-727.622 357.17L-786.849 356.96C-787.515 356.962 -788.1 356.381 -788.102 355.715C-788.105 355.048 -787.524 354.463 -786.857 354.461L-727.797 354.671L-685.934 343.946C-685.851 343.946 -685.685 343.945 -685.601 343.945L-605.382 344.248L-568.016 334.122C-567.933 334.121 -567.85 334.038 -567.683 334.037L-489.714 334.265L-456.427 324.652C-456.344 324.652 -456.177 324.652 -456.094 324.568L-304.32 325.038L-276.696 315.945C-276.031 315.693 -275.363 316.107 -275.111 316.772C-274.858 317.438 -275.273 318.106 -275.938 318.358L-303.645 327.534C-303.812 327.535 -303.895 327.619 -304.061 327.619L-455.919 327.15L-489.205 336.762C-489.288 336.762 -489.455 336.846 -489.538 336.846L-567.507 336.619L-604.874 346.745C-604.957 346.746 -605.04 346.746 -605.207 346.83L-685.426 346.527L-727.288 357.252C-727.455 357.169 -727.538 357.169 -727.622 357.17Z" fill="#EBEFF6"/>
<path d="M2406 1110.76L2364.77 1110.74C2364.52 1110.74 2364.27 1110.65 2364.02 1110.49L1310.71 352.97L276.45 349.583L-732.248 1107.89C-732.497 1108.05 -732.747 1108.14 -732.997 1108.14L-790.224 1108.09C-790.891 1108.09 -791.476 1107.51 -791.478 1106.84C-791.48 1106.18 -790.899 1105.59 -790.233 1105.59L-733.422 1105.64L275.276 347.338C275.525 347.171 275.774 347.087 276.024 347.086L1311.12 350.47C1311.37 350.469 1311.62 350.551 1311.87 350.717L2365.26 1108.23L2406.08 1108.26C2406.74 1108.26 2407.33 1108.84 2407.33 1109.5C2407.25 1110.17 2406.75 1110.76 2406 1110.76Z" fill="#EBEFF6"/>
<path d="M-731.62 381.008L-786.932 380.867C-787.598 380.87 -788.183 380.289 -788.186 379.622C-788.188 378.956 -787.607 378.371 -786.94 378.368L-731.795 378.509L-687.355 366.442C-687.272 366.442 -687.189 366.358 -687.022 366.358L-602.139 366.644L-562.694 355.261C-562.611 355.261 -562.445 355.177 -562.361 355.177L-479.977 355.472L-445.111 344.771C-445.028 344.771 -444.862 344.771 -444.779 344.687L-364.726 344.991L-333.941 334.887C-333.774 334.887 -333.691 334.803 -333.524 334.802L-255.721 335.031L-202.725 316.27C-202.558 316.186 -202.475 316.186 -202.309 316.185L-54.4494 316.669C-53.783 316.666 -53.1979 317.247 -53.1956 317.914C-53.1933 318.58 -53.8579 319.082 -54.4407 319.168L-202.133 318.683L-255.13 337.444C-255.296 337.528 -255.379 337.529 -255.546 337.529L-333.349 337.301L-364.135 347.404C-364.301 347.405 -364.385 347.405 -364.551 347.489L-444.603 347.185L-479.469 357.886C-479.552 357.887 -479.718 357.887 -479.801 357.971L-562.186 357.675L-601.631 369.058C-601.714 369.059 -601.88 369.143 -601.963 369.143L-686.847 368.856L-731.287 380.923C-731.37 381.007 -731.537 381.007 -731.62 381.008Z" fill="#EBEFF6"/>
<path d="M-736.108 407.846L-787.088 407.691C-787.754 407.693 -788.34 407.112 -788.342 406.445C-788.344 405.779 -787.68 405.277 -787.097 405.192L-736.367 405.348L-689.017 391.688C-688.933 391.688 -688.767 391.604 -688.684 391.603L-598.469 391.872L-556.78 379.064C-556.697 379.064 -556.53 379.064 -556.447 378.98L-469.065 379.258L-432.455 367.218C-432.288 367.218 -432.205 367.134 -432.039 367.134L-347.322 367.421L-315.291 356.064C-315.124 355.98 -314.958 355.979 -314.875 355.979L-232.656 356.275L-204.705 345.598C-204.539 345.514 -204.455 345.514 -204.289 345.514L-124.403 345.734L-100.198 335.654C-100.032 335.57 -99.8653 335.57 -99.6987 335.569L-22.0623 335.798L-1.1875 326.229C-1.02118 326.145 -0.854553 326.144 -0.687988 326.144L150.586 326.615L166.465 317.563C167.047 317.228 167.797 317.392 168.133 318.057C168.468 318.639 168.304 319.39 167.639 319.725L151.511 328.944C151.344 329.028 151.095 329.112 150.928 329.113L-0.346069 328.641L-21.0543 338.21C-21.2206 338.294 -21.3873 338.294 -21.5539 338.295L-99.1902 338.066L-123.395 348.147C-123.562 348.231 -123.728 348.231 -123.895 348.232L-203.78 348.011L-231.732 358.687C-231.898 358.771 -232.065 358.689 -232.148 358.772L-314.366 358.476L-346.397 369.833C-346.563 369.917 -346.646 369.918 -346.813 369.918L-431.53 369.631L-468.14 381.67C-468.307 381.671 -468.39 381.671 -468.556 381.755L-555.939 381.477L-597.794 394.368C-597.877 394.368 -598.043 394.452 -598.127 394.453L-688.341 394.184L-735.691 407.844C-735.858 407.845 -736.025 407.845 -736.108 407.846Z" fill="#EBEFF6"/>
<path d="M-787.265 452.507C-787.765 452.508 -788.266 452.177 -788.434 451.594C-788.603 450.928 -788.272 450.261 -787.607 450.009L-741.591 435.854C-741.508 435.853 -741.342 435.769 -741.258 435.769L-641.714 436.088L-594.371 420.512C-594.204 420.512 -594.121 420.428 -593.954 420.428L-497.825 420.758L-456.726 406.204C-456.559 406.12 -456.393 406.12 -456.31 406.119L-363.346 406.378L-327.741 392.759C-327.575 392.675 -327.408 392.675 -327.325 392.674L-237.36 392.943L-206.75 380.175C-206.584 380.091 -206.417 380.09 -206.251 380.09L-119.118 380.369L-92.9203 368.366C-92.754 368.282 -92.5876 368.198 -92.4208 368.28L-7.95361 368.569L14.3312 357.245C14.4975 357.162 14.6638 357.078 14.9137 357.077L96.882 357.374L115.587 346.729C115.754 346.646 116.004 346.645 116.17 346.561L195.722 346.783L211.181 336.733C211.347 336.566 211.597 336.565 211.847 336.564L289.15 336.794L301.695 327.337C301.944 327.17 302.194 327.086 302.444 327.085L453.135 327.558L461.101 318.784C461.599 318.283 462.349 318.197 462.85 318.695C463.352 319.193 463.438 319.942 462.94 320.444L454.558 329.636C454.309 329.887 453.893 329.971 453.644 330.056L302.786 329.583L290.24 339.039C289.991 339.207 289.742 339.291 289.492 339.292L212.105 339.062L196.646 349.112C196.48 349.279 196.231 349.28 195.981 349.281L116.345 349.059L97.6398 359.704C97.4735 359.787 97.3072 359.871 97.0573 359.872L15.0891 359.575L-7.1958 370.898C-7.36212 370.982 -7.52844 371.066 -7.77832 371.067L-92.2455 370.779L-118.443 382.782C-118.609 382.866 -118.776 382.867 -118.943 382.867L-206.075 382.588L-236.685 395.357C-236.851 395.441 -236.935 395.441 -237.185 395.442L-327.15 395.173L-362.754 408.792C-362.921 408.875 -363.087 408.876 -363.171 408.876L-456.134 408.618L-497.234 423.172C-497.4 423.256 -497.483 423.256 -497.65 423.257L-593.779 422.926L-641.122 438.502C-641.289 438.502 -641.456 438.503 -641.539 438.587L-741.083 438.268L-786.848 452.505C-787.015 452.506 -787.098 452.506 -787.265 452.507Z" fill="#EBEFF6"/>
<path d="M-741.249 438.351L-787.231 438.179C-787.898 438.181 -788.483 437.6 -788.485 436.934C-788.488 436.267 -787.907 435.682 -787.24 435.68L-741.508 435.853L-690.833 420.266C-690.749 420.266 -690.583 420.265 -690.5 420.182L-594.287 420.512L-550.022 405.947C-549.856 405.946 -549.773 405.863 -549.606 405.862L-456.643 406.121L-418.122 392.491C-417.956 392.408 -417.873 392.407 -417.706 392.407L-327.741 392.676L-294.299 379.897C-294.133 379.814 -294.05 379.813 -293.883 379.813L-206.667 380.091L-177.804 368.079C-177.637 367.995 -177.471 367.994 -177.304 367.994L-92.7538 368.282L-68.0533 356.95C-67.887 356.866 -67.7207 356.782 -67.5538 356.865L14.4977 357.162L35.5353 346.509C35.7017 346.425 35.9513 346.341 36.1179 346.34L115.753 346.562L133.378 336.505C133.544 336.421 133.794 336.337 133.96 336.336L211.347 336.566L240.187 317.889C240.353 317.722 240.603 317.721 240.853 317.72L388.295 318.205C388.962 318.203 389.547 318.784 389.549 319.45C389.551 320.117 388.97 320.619 388.304 320.704L241.194 320.218L212.355 338.895C212.189 339.062 211.939 339.146 211.689 339.064L134.219 338.834L116.595 348.892C116.428 348.976 116.179 349.06 116.012 349.06L36.2932 348.839L15.2555 359.491C15.0892 359.575 14.9229 359.659 14.673 359.66L-67.3785 359.363L-92.079 370.695C-92.2453 370.779 -92.4119 370.779 -92.5785 370.78L-177.129 370.492L-205.992 382.505C-206.158 382.589 -206.325 382.589 -206.492 382.59L-293.708 382.311L-327.15 395.089C-327.316 395.173 -327.483 395.174 -327.566 395.174L-417.614 394.905L-456.134 408.534C-456.301 408.618 -456.384 408.619 -456.551 408.619L-549.597 408.361L-593.862 422.926C-594.029 422.927 -594.112 423.01 -594.278 423.011L-690.491 422.68L-741.166 438.268C-740.999 438.351 -741.083 438.351 -741.249 438.351Z" fill="#EBEFF6"/>
<path d="M2405.04 1336.42L2396.05 1336.45C2395.71 1336.45 2395.46 1336.37 2395.21 1336.12L1219.13 342.377L367.878 339.601L-746.363 1335.76C-746.613 1335.93 -746.946 1336.01 -747.195 1336.1L-791.261 1336.08C-791.927 1336.09 -792.512 1335.5 -792.515 1334.84C-792.517 1334.17 -791.936 1333.59 -791.27 1333.58L-747.704 1333.6L366.454 337.44C366.704 337.273 366.953 337.105 367.286 337.104L1219.54 339.877C1219.87 339.876 1220.12 339.958 1220.37 340.207L2396.45 1333.87L2405.03 1333.84C2405.7 1333.84 2406.29 1334.42 2406.29 1335.08C2406.29 1335.75 2405.71 1336.42 2405.04 1336.42Z" fill="#EBEFF6"/>
<path d="M2409.52 327.477L2365.7 327.296C2365.03 327.299 2364.45 326.718 2364.45 326.051C2364.44 325.385 2365.03 324.716 2365.69 324.797L2409.51 324.978C2410.18 324.975 2410.76 325.556 2410.76 326.223C2410.77 326.889 2410.27 327.474 2409.52 327.477Z" fill="#EBEFF6"/>
<path d="M2408.79 501.826L2389.8 501.809C2389.63 501.809 2389.55 501.81 2389.38 501.727L2275.3 464.14L-692.209 455.423L-786.979 486.658C-787.644 486.911 -788.312 486.497 -788.564 485.831C-788.817 485.165 -788.403 484.498 -787.737 484.245L-692.801 453.01C-692.634 453.009 -692.551 452.926 -692.385 452.925L2275.46 461.558C2275.62 461.557 2275.71 461.557 2275.87 461.639L2389.96 499.226L2408.78 499.244C2409.45 499.241 2410.04 499.822 2410.04 500.489C2410.04 501.322 2409.46 501.824 2408.79 501.826Z" fill="#EBEFF6"/>
<path d="M2408.81 482.5L-787.359 473.332C-788.025 473.334 -788.61 472.753 -788.613 472.087C-788.615 471.42 -788.034 470.918 -787.367 470.833L2408.8 480.001C2409.47 479.999 2410.05 480.58 2410.05 481.246C2410.06 481.913 2409.56 482.498 2408.81 482.5Z" fill="#EBEFF6"/>
<path d="M2408.53 545.393L2404.78 545.406C2404.61 545.406 2404.53 545.407 2404.36 545.324L2125.96 446.919L-541.577 438.987L-787.175 525.977C-787.84 526.229 -788.508 525.898 -788.76 525.233C-789.012 524.567 -788.682 523.9 -788.016 523.647L-542.252 436.574C-542.086 436.49 -542.002 436.49 -541.836 436.489L2126.21 444.419C2126.37 444.418 2126.46 444.418 2126.62 444.501L2405.02 542.906L2408.52 542.894C2409.19 542.891 2409.77 543.472 2409.77 544.139C2409.78 544.889 2409.28 545.39 2408.53 545.393Z" fill="#EBEFF6"/>
<path d="M2408.7 522.734L-787.55 514.066C-788.216 514.069 -788.801 513.487 -788.803 512.821C-788.806 512.155 -788.225 511.57 -787.558 511.567L2408.61 520.319C2409.27 520.317 2409.86 520.898 2409.86 521.564C2409.95 522.23 2409.37 522.732 2408.7 522.734Z" fill="#EBEFF6"/>
<path d="M2408.36 591.458C2408.19 591.459 2408.02 591.459 2407.94 591.376L2351.55 569.915L-761.726 561.874L-787.348 571.709C-788.014 571.961 -788.681 571.63 -788.934 570.965C-789.186 570.299 -788.855 569.632 -788.19 569.38L-762.318 559.46C-762.152 559.376 -761.985 559.375 -761.902 559.375L2351.71 567.416C2351.88 567.415 2352.05 567.414 2352.13 567.497L2408.76 589.041C2409.43 589.289 2409.77 590.037 2409.52 590.621C2409.36 591.205 2408.86 591.456 2408.36 591.458Z" fill="#EBEFF6"/>
<path d="M-786.685 332.136C-787.268 332.138 -787.77 331.723 -787.938 331.141C-788.107 330.475 -787.693 329.807 -787.027 329.638L-760.892 323.633C-760.809 323.632 -760.725 323.632 -760.642 323.632L-608.452 324.1L-572.914 314.98C-572.249 314.811 -571.581 315.225 -571.412 315.891C-571.243 316.557 -571.657 317.224 -572.323 317.393L-608.027 326.514C-608.11 326.515 -608.193 326.598 -608.36 326.516L-760.55 326.047L-786.602 332.052C-786.519 332.135 -786.602 332.136 -786.685 332.136Z" fill="#EBEFF6"/>
<path d="M-760.55 326.047L-786.707 325.972C-787.373 325.974 -787.958 325.393 -787.961 324.727C-787.963 324.06 -787.382 323.475 -786.716 323.473L-760.726 323.549L-721.19 314.414C-721.107 314.414 -721.024 314.414 -720.94 314.414L-646.719 314.654C-646.053 314.652 -645.468 315.233 -645.465 315.899C-645.463 316.566 -646.044 317.151 -646.71 317.153L-720.765 316.912L-760.301 326.046C-760.384 326.047 -760.467 326.047 -760.55 326.047Z" fill="#EBEFF6"/>
<path d="M2408.45 570.05L2351.72 569.915C2351.55 569.915 2351.39 569.916 2351.3 569.833L1986.63 430.829L-401.104 423.586L-761.477 561.789C-761.643 561.873 -761.81 561.874 -761.893 561.874L-787.716 561.798C-788.383 561.8 -788.968 561.219 -788.97 560.553C-788.972 559.886 -788.475 559.218 -787.725 559.299L-762.152 559.376L-401.779 421.173C-401.612 421.089 -401.446 421.088 -401.362 421.088L1986.79 428.329C1986.96 428.328 1987.12 428.328 1987.21 428.411L2351.88 567.415L2408.36 567.551C2409.02 567.549 2409.61 568.13 2409.61 568.796C2409.7 569.462 2409.11 570.047 2408.45 570.05Z" fill="#EBEFF6"/>
<path d="M-786.785 351.212C-787.368 351.214 -787.87 350.799 -788.038 350.217C-788.207 349.551 -787.793 348.883 -787.127 348.714L-766.32 343.644C-766.237 343.643 -766.153 343.643 -765.987 343.642L-685.768 343.946L-646.153 333.811C-646.069 333.811 -645.986 333.811 -645.819 333.81L-567.85 334.038L-498.693 315.304C-498.61 315.303 -498.443 315.22 -498.36 315.219L-350.168 315.702C-349.501 315.699 -348.916 316.28 -348.914 316.947C-348.912 317.613 -349.493 318.198 -350.159 318.201L-498.185 317.718L-567.342 336.452C-567.425 336.452 -567.591 336.536 -567.674 336.536L-645.727 336.309L-685.343 346.443C-685.426 346.443 -685.509 346.527 -685.676 346.444L-765.895 346.141L-786.536 351.128C-786.619 351.211 -786.702 351.212 -786.785 351.212Z" fill="#EBEFF6"/>
<path d="M-766.061 346.142L-786.803 346.048C-787.47 346.05 -788.055 345.469 -788.057 344.802C-788.059 344.136 -787.478 343.551 -786.812 343.549L-766.237 343.643L-724.455 333.502C-724.372 333.501 -724.206 333.501 -724.122 333.5L-646.069 333.728L-608.618 324.101C-608.535 324.1 -608.368 324.1 -608.285 324.1L-456.261 324.569L-424.639 315.462C-423.973 315.293 -423.305 315.624 -423.053 316.289C-422.884 316.955 -423.215 317.623 -423.88 317.875L-455.669 327.065C-455.752 327.066 -455.919 327.066 -456.002 327.15L-608.11 326.598L-645.561 336.225C-645.644 336.225 -645.727 336.225 -645.894 336.226L-723.947 335.999L-765.728 346.141C-765.811 346.141 -765.895 346.141 -766.061 346.142Z" fill="#EBEFF6"/>
<path d="M2408.12 643.855C2407.96 643.855 2407.79 643.856 2407.62 643.773L2365.08 626.179L-771.191 618.717L-787.577 625.522C-788.243 625.774 -788.91 625.526 -789.245 624.861C-789.498 624.195 -789.25 623.528 -788.585 623.193L-771.949 616.221C-771.783 616.137 -771.616 616.136 -771.45 616.136L2365.32 623.679C2365.49 623.678 2365.65 623.678 2365.82 623.76L2408.61 641.437C2409.28 641.685 2409.53 642.434 2409.29 643.101C2409.04 643.601 2408.62 643.853 2408.12 643.855Z" fill="#EBEFF6"/>
<path d="M2408.23 626.278L2365.41 626.178C2365.24 626.178 2365.08 626.179 2364.91 626.096L1856.05 415.791L-269.79 409.3L-770.941 618.55C-771.108 618.634 -771.274 618.634 -771.441 618.635L-788.018 618.609C-788.684 618.612 -789.269 618.031 -789.272 617.364C-789.274 616.698 -788.693 616.113 -788.026 616.11L-771.7 616.137L-270.465 406.887C-270.298 406.803 -270.132 406.802 -269.965 406.802L1856.29 413.291C1856.46 413.29 1856.62 413.29 1856.79 413.372L2365.65 623.678L2408.22 623.779C2408.89 623.777 2409.47 624.358 2409.47 625.024C2409.48 625.774 2408.89 626.276 2408.23 626.278Z" fill="#EBEFF6"/>
<path d="M-786.878 372.371C-787.461 372.373 -787.962 371.958 -788.131 371.459C-788.3 370.793 -787.886 370.125 -787.22 369.956L-772.489 366.156C-772.406 366.156 -772.239 366.155 -772.156 366.155L-687.189 366.441L-645.329 355.05C-645.245 355.05 -645.079 355.049 -644.996 354.965L-562.528 355.261L-525.33 344.552C-525.247 344.551 -525.08 344.468 -524.997 344.467L-444.945 344.771L-411.91 334.66C-411.827 334.659 -411.66 334.575 -411.577 334.575L-333.691 334.803L-304.486 325.205C-304.32 325.204 -304.237 325.121 -304.07 325.12L-152.462 325.591L-128.754 316.511C-128.088 316.259 -127.421 316.59 -127.168 317.256C-126.916 317.921 -127.247 318.589 -127.912 318.841L-151.871 328.004C-152.037 328.088 -152.12 328.088 -152.287 328.089L-303.978 327.619L-333.183 337.217C-333.349 337.218 -333.432 337.301 -333.599 337.302L-411.485 337.074L-444.52 347.185C-444.603 347.185 -444.77 347.269 -444.853 347.27L-524.988 346.966L-562.186 357.675C-562.269 357.675 -562.436 357.759 -562.519 357.76L-644.987 357.464L-686.681 368.855C-686.764 368.856 -686.93 368.94 -687.013 368.94L-771.98 368.653L-786.545 372.369C-786.712 372.37 -786.795 372.37 -786.878 372.371Z" fill="#EBEFF6"/>
<path d="M-772.147 368.571L-786.892 368.539C-787.558 368.541 -788.143 367.96 -788.145 367.294C-788.148 366.627 -787.65 365.959 -786.9 366.04L-772.323 366.072L-727.963 354.755C-727.88 354.755 -727.797 354.755 -727.63 354.754L-645.162 355.049L-605.632 344.332C-605.549 344.332 -605.382 344.248 -605.299 344.248L-525.164 344.468L-489.963 334.349C-489.88 334.349 -489.714 334.265 -489.63 334.265L-411.744 334.492L-350.668 315.703C-350.584 315.703 -350.418 315.619 -350.335 315.619L-202.309 316.102C-201.643 316.099 -201.057 316.681 -201.055 317.347C-201.053 318.013 -201.634 318.598 -202.3 318.601L-350.159 318.117L-411.236 336.906C-411.319 336.907 -411.486 336.991 -411.569 336.991L-489.455 336.763L-524.656 346.882C-524.739 346.882 -524.905 346.966 -524.988 346.966L-605.124 346.746L-644.654 357.463C-644.737 357.464 -644.82 357.547 -644.987 357.548L-727.538 357.253L-771.897 368.653C-771.897 368.57 -772.064 368.57 -772.147 368.571Z" fill="#EBEFF6"/>
<path d="M-786.962 396.028C-787.545 396.03 -788.046 395.699 -788.131 395.116C-788.3 394.45 -787.886 393.782 -787.22 393.613L-779.231 391.42C-779.148 391.419 -779.065 391.336 -778.898 391.335L-688.6 391.603L-644.163 378.786C-644.08 378.786 -643.997 378.702 -643.83 378.702L-556.364 378.98L-517.172 366.931C-517.089 366.931 -517.006 366.847 -516.839 366.846L-432.039 367.134L-397.509 355.768C-397.342 355.767 -397.259 355.683 -397.093 355.683L-314.791 355.979L-284.507 345.294C-284.341 345.21 -284.258 345.21 -284.091 345.209L-204.206 345.43L-177.752 335.258C-177.586 335.174 -177.419 335.174 -177.336 335.174L-99.616 335.402L-54.6994 316.669C-54.5331 316.586 -54.3665 316.585 -54.2 316.584L93.5759 317.068C94.2423 317.066 94.8275 317.647 94.8298 318.313C94.8321 318.98 94.251 319.565 93.5847 319.567L-54.1077 319.166L-99.0242 337.899C-99.1905 337.983 -99.3571 337.984 -99.5237 337.984L-177.243 337.756L-203.697 347.927C-203.864 348.011 -204.03 348.012 -204.113 348.012L-284.082 347.791L-314.366 358.476C-314.532 358.56 -314.616 358.56 -314.782 358.561L-397.084 358.265L-431.53 369.631C-431.697 369.631 -431.78 369.715 -431.946 369.716L-516.747 369.428L-555.939 381.477C-556.022 381.477 -556.189 381.478 -556.272 381.562L-643.738 381.284L-688.175 394.101C-688.258 394.101 -688.425 394.185 -688.508 394.185L-778.806 393.917L-786.629 396.027C-786.796 396.027 -786.879 396.028 -786.962 396.028Z" fill="#EBEFF6"/>
<path d="M-779.056 393.835L-787.053 393.779C-787.72 393.782 -788.305 393.201 -788.307 392.534C-788.31 391.868 -787.728 391.283 -787.062 391.28L-779.232 391.336L-731.962 378.51C-731.879 378.509 -731.712 378.426 -731.629 378.425L-644.163 378.703L-602.305 366.645C-602.222 366.645 -602.056 366.644 -601.973 366.561L-517.089 366.847L-480.143 355.473C-480.06 355.473 -479.894 355.389 -479.81 355.388L-397.509 355.684L-364.893 344.991C-364.726 344.991 -364.643 344.907 -364.477 344.907L-284.508 345.21L-255.888 335.115C-255.721 335.031 -255.638 335.03 -255.471 335.03L-177.752 335.258L-152.712 325.675C-152.546 325.591 -152.462 325.591 -152.296 325.59L-0.854858 326.061L18.9389 316.995C19.6044 316.743 20.2717 316.991 20.6069 317.573C20.8591 318.238 20.6116 318.906 20.0296 319.241L-0.0136719 328.39C-0.179993 328.474 -0.346619 328.475 -0.513184 328.475L-152.037 328.005L-177.077 337.588C-177.244 337.672 -177.41 337.673 -177.493 337.673L-255.213 337.445L-283.833 347.541C-283.999 347.624 -284.083 347.625 -284.249 347.625L-364.218 347.321L-396.835 358.014C-397.001 358.015 -397.084 358.098 -397.251 358.099L-479.635 357.803L-516.581 369.178C-516.664 369.178 -516.831 369.262 -516.914 369.262L-601.798 368.976L-643.571 381.2C-643.655 381.2 -643.821 381.201 -643.904 381.284L-731.454 381.007L-778.723 393.833C-778.806 393.834 -778.89 393.834 -779.056 393.835Z" fill="#EBEFF6"/>
<path d="M2407.84 706.081C2407.67 706.081 2407.51 706.082 2407.34 705.999L2381.56 694.344L-782.696 687.396L-787.853 689.747C-788.518 689.999 -789.186 689.751 -789.521 689.17C-789.773 688.504 -789.525 687.837 -788.944 687.502L-783.538 685.067C-783.371 684.983 -783.121 684.982 -783.038 684.982L2381.8 691.844C2381.97 691.843 2382.13 691.843 2382.3 691.926L2408.25 703.664C2408.92 703.911 2409.17 704.66 2408.84 705.328C2408.76 705.744 2408.34 706.079 2407.84 706.081Z" fill="#EBEFF6"/>
<path d="M2407.88 694.419L2381.81 694.343C2381.64 694.344 2381.48 694.344 2381.31 694.261L1733.55 401.724L-146.72 395.792L-782.447 687.312C-782.613 687.396 -782.863 687.397 -782.946 687.397L-788.277 687.416C-788.944 687.418 -789.529 686.837 -789.531 686.171C-789.534 685.504 -788.953 684.919 -788.286 684.917L-783.205 684.899L-147.561 393.38C-147.395 393.296 -147.228 393.295 -147.062 393.295L1733.79 399.141C1733.96 399.14 1734.12 399.14 1734.29 399.222L2382.05 691.76L2407.79 691.837C2408.46 691.834 2409.04 692.415 2409.04 693.082C2409.13 693.831 2408.55 694.416 2407.88 694.419Z" fill="#EBEFF6"/>
<path d="M-690.324 422.763C-690.408 422.764 -690.408 422.764 -690.324 422.763L-786.62 422.433L-786.703 422.433C-787.369 422.602 -788.037 422.271 -788.289 421.606C-788.458 420.94 -788.127 420.272 -787.462 420.02L-787.212 419.936C-787.129 419.936 -786.962 419.852 -786.879 419.852L-690.583 420.182L-643.153 405.605C-643.07 405.605 -642.903 405.521 -642.82 405.521L-549.773 405.779L-508.337 392.14C-508.171 392.139 -508.088 392.056 -507.921 392.055L-417.873 392.324L-381.682 379.536C-381.516 379.452 -381.433 379.452 -381.266 379.451L-294.05 379.73L-262.605 367.708C-262.438 367.624 -262.355 367.541 -262.188 367.624L-177.555 367.911L-150.438 356.571C-150.272 356.487 -150.105 356.487 -149.939 356.486L-67.8041 356.782L-44.5174 346.122C-44.3511 346.038 -44.1845 346.038 -44.0179 346.037L35.701 346.259L55.5745 336.193C55.7408 336.109 55.9071 336.025 56.157 336.025L133.627 336.254L150.337 326.699C150.503 326.616 150.669 326.532 150.919 326.531L301.944 327.003L313.824 318.049C314.406 317.63 315.156 317.711 315.574 318.292C315.993 318.874 315.912 319.624 315.331 320.043L303.118 329.248C302.868 329.416 302.619 329.5 302.369 329.501L151.261 329.029L134.551 338.583C134.385 338.667 134.135 338.751 133.969 338.752L56.4156 338.523L36.5421 348.588C36.3758 348.672 36.2095 348.756 35.9596 348.757L-43.7592 348.535L-67.046 359.195C-67.2123 359.279 -67.2957 359.28 -67.5455 359.281L-149.68 358.984L-176.713 370.407C-176.879 370.491 -177.046 370.492 -177.212 370.492L-261.846 370.205L-293.292 382.226C-293.458 382.31 -293.541 382.31 -293.708 382.311L-381.007 382.033L-417.114 394.904C-417.281 394.988 -417.364 394.988 -417.531 394.988L-507.579 394.72L-549.098 408.359C-549.264 408.36 -549.348 408.36 -549.514 408.444L-642.561 408.186L-689.991 422.762C-690.158 422.763 -690.241 422.763 -690.324 422.763Z" fill="#EBEFF6"/>
<path d="M-786.87 422.434L-787.203 422.435C-787.87 422.437 -788.455 421.856 -788.457 421.19C-788.459 420.524 -787.878 419.938 -787.212 419.936L-787.129 419.936L-736.617 405.349C-736.533 405.348 -736.45 405.265 -736.284 405.264L-643.153 405.522L-598.719 391.872C-598.636 391.872 -598.469 391.788 -598.386 391.788L-508.254 392.056L-469.315 379.259C-469.148 379.258 -469.065 379.175 -468.899 379.174L-381.599 379.452L-347.572 367.422C-347.405 367.338 -347.322 367.338 -347.155 367.337L-262.522 367.625L-232.906 356.276C-232.74 356.192 -232.657 356.192 -232.49 356.191L-150.355 356.488L-124.736 345.819C-124.57 345.735 -124.403 345.735 -124.237 345.734L-44.4347 345.955L-22.3954 335.882C-22.2291 335.798 -22.0624 335.798 -21.8958 335.797L55.6572 336.026L92.577 317.322C92.7433 317.238 92.993 317.153 93.1597 317.153L240.769 317.637C241.435 317.635 242.02 318.216 242.023 318.882C242.025 319.549 241.444 320.134 240.777 320.136L93.5015 319.651L56.5817 338.355C56.4153 338.439 56.2487 338.44 55.9991 338.524L-21.5539 338.295L-43.5933 348.368C-43.7596 348.452 -44.0095 348.453 -44.0928 348.453L-123.895 348.232L-149.514 358.9C-149.68 358.984 -149.847 358.985 -150.013 358.985L-232.232 358.689L-261.847 370.038C-262.013 370.122 -262.096 370.122 -262.263 370.123L-346.98 369.835L-381.008 381.866C-381.174 381.95 -381.257 381.95 -381.424 381.951L-468.723 381.673L-507.663 394.47C-507.83 394.471 -507.913 394.471 -508.079 394.555L-598.211 394.286L-642.645 407.936C-642.728 407.936 -642.895 408.02 -642.978 408.02L-736.108 407.762L-786.62 422.35C-786.62 422.433 -786.703 422.433 -786.87 422.434Z" fill="#EBEFF6"/>
<g opacity="0.8">
<g opacity="0.2" filter="url(#filter0_f_5202_3401)">
<path d="M1631 640.078L904.659 640.078L904.659 1473.26L2357.34 1473.26L2357.34 640.078L1631 640.078Z" fill="#3A95FF" fill-opacity="0.31"/>
</g>
<g opacity="0.2" filter="url(#filter1_f_5202_3401)">
<ellipse cx="1631" cy="771.173" rx="658.321" ry="158.285" fill="#1E6BFF"/>
</g>
</g>
<g opacity="0.5">
<g opacity="0.2" filter="url(#filter2_f_5202_3401)">
<path d="M113.445 574.093L-349.744 574.093L-349.744 1105.41L576.633 1105.41L576.633 574.093L113.445 574.093Z" fill="#3A95FF" fill-opacity="0.31"/>
</g>
<g opacity="0.2" filter="url(#filter3_f_5202_3401)">
<ellipse cx="113.445" cy="657.692" rx="419.813" ry="100.939" fill="#1E6BFF"/>
</g>
</g>
<rect x="-415.297" y="317.559" width="2443.25" height="263.632" transform="rotate(-0.2 -415.297 317.559)" fill="url(#paint0_linear_5202_3401)"/>
<rect width="2443.25" height="525.996" transform="matrix(0.999994 0.00349065 0.00349065 -0.999994 -415.391 1112.21)" fill="url(#paint1_linear_5202_3401)"/>
</g>
<defs>
<filter id="filter0_f_5202_3401" x="597.94" y="333.36" width="2066.12" height="1446.62" filterUnits="userSpaceOnUse" color-interpolation-filters="sRGB">
<feFlood flood-opacity="0" result="BackgroundImageFix"/>
<feBlend mode="normal" in="SourceGraphic" in2="BackgroundImageFix" result="shape"/>
<feGaussianBlur stdDeviation="153.359" result="effect1_foregroundBlur_5202_3401"/>
</filter>
<filter id="filter1_f_5202_3401" x="665.959" y="306.169" width="1930.08" height="930.006" filterUnits="userSpaceOnUse" color-interpolation-filters="sRGB">
<feFlood flood-opacity="0" result="BackgroundImageFix"/>
<feBlend mode="normal" in="SourceGraphic" in2="BackgroundImageFix" result="shape"/>
<feGaussianBlur stdDeviation="153.359" result="effect1_foregroundBlur_5202_3401"/>
</filter>
<filter id="filter2_f_5202_3401" x="-545.339" y="378.498" width="1317.57" height="922.511" filterUnits="userSpaceOnUse" color-interpolation-filters="sRGB">
<feFlood flood-opacity="0" result="BackgroundImageFix"/>
<feBlend mode="normal" in="SourceGraphic" in2="BackgroundImageFix" result="shape"/>
<feGaussianBlur stdDeviation="97.7975" result="effect1_foregroundBlur_5202_3401"/>
</filter>
<filter id="filter3_f_5202_3401" x="-501.963" y="361.158" width="1230.82" height="593.067" filterUnits="userSpaceOnUse" color-interpolation-filters="sRGB">
<feFlood flood-opacity="0" result="BackgroundImageFix"/>
<feBlend mode="normal" in="SourceGraphic" in2="BackgroundImageFix" result="shape"/>
<feGaussianBlur stdDeviation="97.7975" result="effect1_foregroundBlur_5202_3401"/>
</filter>
<linearGradient id="paint0_linear_5202_3401" x1="807.758" y1="334.877" x2="807.24" y2="581.193" gradientUnits="userSpaceOnUse">
<stop stop-color="#F8FBFF"/>
<stop offset="1" stop-color="#F8FBFF" stop-opacity="0"/>
</linearGradient>
<linearGradient id="paint1_linear_5202_3401" x1="1223.05" y1="34.5514" x2="1221" y2="525.993" gradientUnits="userSpaceOnUse">
<stop stop-color="#F8FBFF"/>
<stop offset="1" stop-color="#F8FBFF" stop-opacity="0"/>
</linearGradient>
</defs>
</svg>
