<svg width="65" height="64" viewBox="0 0 65 64" fill="none" xmlns="http://www.w3.org/2000/svg">
<path fill-rule="evenodd" clip-rule="evenodd" d="M55.5658 17.987C60.5328 17.987 64.5593 13.9604 64.5593 8.99348C64.5593 4.02652 60.5328 0 55.5658 0C50.5988 0 46.5723 4.02652 46.5723 8.99348C46.5723 13.9604 50.5988 17.987 55.5658 17.987Z" fill="#8055FA"/>
<path fill-rule="evenodd" clip-rule="evenodd" d="M55.5654 40.5745C60.5323 40.5745 64.5588 36.5481 64.5588 31.5813C64.5588 26.6145 60.5323 22.5881 55.5654 22.5881C50.5984 22.5881 46.5719 26.6145 46.5719 31.5813C46.5719 36.5481 50.5984 40.5745 55.5654 40.5745Z" fill="#7550FB"/>
<path fill-rule="evenodd" clip-rule="evenodd" d="M55.5654 64C60.5323 64 64.5588 59.9735 64.5588 55.0065C64.5588 50.0395 60.5323 46.013 55.5654 46.013C50.5984 46.013 46.5719 50.0395 46.5719 55.0065C46.5719 59.9735 50.5984 64 55.5654 64Z" fill="#6A4AFC"/>
<path fill-rule="evenodd" clip-rule="evenodd" d="M32.1411 40.5745C37.1079 40.5745 41.1343 36.5481 41.1343 31.5813C41.1343 26.6145 37.1079 22.5881 32.1411 22.5881C27.1743 22.5881 23.1479 26.6145 23.1479 31.5813C23.1479 36.5481 27.1743 40.5745 32.1411 40.5745Z" fill="#6045FD"/>
<path fill-rule="evenodd" clip-rule="evenodd" d="M32.1407 64C37.1075 64 41.1339 59.9735 41.1339 55.0065C41.1339 50.0395 37.1075 46.013 32.1407 46.013C27.1739 46.013 23.1475 50.0395 23.1475 55.0065C23.1475 59.9735 27.1739 64 32.1407 64Z" fill="#553FFE"/>
<path fill-rule="evenodd" clip-rule="evenodd" d="M9.55189 64C14.5189 64 18.5454 59.9735 18.5454 55.0065C18.5454 50.0395 14.5189 46.013 9.55189 46.013C4.58493 46.013 0.558411 50.0395 0.558411 55.0065C0.558411 59.9735 4.58493 64 9.55189 64Z" fill="#4A3AFF"/>
</svg>
